<svg version="1" xmlns="http://www.w3.org/2000/svg" width="2533.333" height="2533.333" viewBox="0 0 1900.000000 1900.000000"><path d="M1407.7 495.7c-.3.2-2.6.6-5.3 1-6 .7-5.9.7-11.4 2.2-5.3 1.5-22 8.1-30.8 12.2-3.4 1.5-6.6 2.9-7 3-.4.1-1.9 1-3.4 2-1.4 1-2.9 1.9-3.2 1.9-1 0-18.7 10.9-21.7 13.4-1.5 1.1-4 3.1-5.6 4.3-1.5 1.2-3.9 3.1-5.3 4.3-1.4 1.2-3.6 3.2-5 4.4-2.9 2.6-9.2 9.5-13.5 14.9-1.6 2.1-3.6 4.4-4.2 5.2-.7.7-1.3 1.8-1.3 2.4 0 .6-.3 1.1-.7 1.1-.5 0-1.3 1-2 2.3-4 7.8-7.7 15.3-7.9 16.2-.1.5-.9 2.7-1.8 4.7-.9 2.1-1.3 3.8-1 3.8.4 0 .2.6-.4 1.3-.6.7-1.3 2.6-1.6 4.2-.2 1.7-.5 3-.6 3-.2 0-.4 1.3-1.5 10-1 7.2-1 20.4-.1 26 .3 2.2.8 5.8 1.1 8 .3 2.2.9 5.5 1.5 7.4.5 1.8.9 3.6.8 4-.1.3.1 1.3.5 2.1.3.8 1.5 4.5 2.6 8.2 7 22.4 21.9 48.3 42.3 73 19.7 23.9 32.2 33.9 59.3 47.1 8.6 4.3 36 15.6 38.5 16 .8.2 2 .5 2.5.9 1.1.6 29.2 9.8 31.5 10.3.8.2 5.1 1.4 9.5 2.8 7.4 2.4 14.9 4.5 18.5 5.2.8.2 1.6.4 1.8.5.1.2.5.3 1 .5.4.1 1.9.5 3.3.9s3.2.9 4 1c.8.2 2.1.6 2.9.9.8.3 7.8 2.2 15.5 4.2 7.7 1.9 14.9 3.8 16 4.1 1.1.3 3.1.7 4.5 1 1.4.3 4.8 1.1 7.5 1.9 2.8.8 6.1 1.6 7.5 1.9 1.4.3 4.3 1 6.5 1.6 2.2.6 5.4 1.3 7 1.6 1.7.3 3.8 1 4.8 1.5.9.5 1.7.8 1.7.5 0-.3 2.1.1 4.8.9 2.6.8 5.8 1.6 7.2 1.9 3.6.7 23.2 5.7 25 6.3 1.8.7 2.1.8 8.5 2.3 2.8.6 6.9 1.7 9.2 2.5 2.4.8 5.7 1.7 7.4 2 1.8.3 4.1 1.1 5.3 1.7 1.1.6 2.1 1 2.1.9 0-.5 8.8 1.9 11 2.9 1.1.6 2.9 1.2 4 1.3 1.9.4 2.8.7 7.3 2.4.9.3 1.9.7 2.2.8 6.7 2 9.6 3 10 3.5.3.3 2.3 1.1 4.5 1.9 7.7 2.6 23.6 10.8 25.5 13.1.3.4 2.6 2.1 5.2 3.9 6.6 4.4 18.1 16.1 25.3 25.7 3.3 4.3 6.3 8 6.8 8.2.4.2.7.7.7 1.2 0 .4 2.9 5.1 6.5 10.4 3.5 5.3 6.5 10 6.6 10.4.1.4 1.2 2.3 2.4 4.2 10.7 17.2 31.9 62 38 80.5.7 2.2 2.9 8.6 4.9 14.3 2 5.7 3.8 11.3 4 12.5.3 1.2.5 2.2.6 2.2.1 0 .3.7.5 1.5.3.8 1.8 6.7 3.5 13s3.2 12.6 3.4 14c.3 1.4.7 3.8 1 5.5 3.2 16.7 4 24.7 4 39.5 0 15.4-.4 17.4-5.7 30-1.7 4.1-4.2 9.5-5.6 12-4.2 7.8-15.4 25-16.3 25-.4 0-.8.7-.8 1.5 0 .7-.6 1.8-1.3 2.2-.7.4-2 1.9-2.9 3.3-.9 1.4-2.4 3.4-3.4 4.5-1.1 1.1-3.7 4.3-5.9 7-2.2 2.8-9.8 10.9-17 18.1-10.9 10.9-16.4 16-28 25.6-7.7 6.5-34.4 24.8-36 24.8-.3 0-2.3 1.1-4.5 2.5s-4 2.2-4 1.8c0-.5-.4-.3-.8.3-.6.9-13.6 7.7-15.2 7.9-.3.1-2.3.9-4.5 1.9-4.7 2.1-25.9 9.3-29.5 10-1.4.3-5.4 1.2-9 1.9-3.6.8-7.2 1.5-8 1.5-1.6.1-5.5.9-5.5 1.2 0 .2-1.4.5-15 3.4-11.6 2.5-14 2.8-31 4.3-12.2 1-65 .5-65-.7 0 0-3.5-.3-7.9-.5-7.4-.3-14.6-1-22.6-2-7.5-.9-13.5-1.6-18.3-2-2.8-.3-5.8-.7-6.6-.9-1.5-.4-10.3-1.5-17.6-2.2-1.6-.1-3-.3-3-.4 0-.3-3.3-.8-8.7-1.4-2.9-.3-8.9-1-13.3-1.6-13.5-1.8-28.1-2.9-30.6-2.2-1.8.4-5.2 9.5-6.9 18.3-2.2 11.2-1.3 31.9 1.7 39.9.3.8.8 2.3 1 3.3.2 1 1.5 4.3 3 7.3 2.3 4.6 3.2 5.6 6.5 6.4 3.8 1.1 8.9 1.9 15.8 2.5 1.9.2 3.5.4 3.5.5 0 .4 28.8 2.2 39.2 2.3 4.6.1 8.3.5 8.3.8 0 .4 1.8.3 3.9-.1 2.2-.4 4.4-.4 4.9-.1.6.3 15.1.5 32.4.4 17.2-.2 32.2-.3 33.3-.2 2.5 0 1.9.1 14.9-.5 17.3-.7 37.9-2 51.6-3.1 3.6-.3 7.2-.6 8-.7.8 0 8.2-.9 16.5-1.9 8.2-1 15.1-1.6 15.3-1.4.3.2 1.2 0 2.1-.4.9-.5 3.9-1.1 6.6-1.5 2.8-.3 6.1-.8 7.5-1.1 1.4-.3 4.3-.8 6.4-1 2.1-.3 4.2-.8 4.6-1 .4-.2 2.2-.7 4.1-1 5-.8 16.2-3.7 17.4-4.3.6-.4 1.5-.7 2.2-.8 2.3-.4 14.8-4.5 16.7-5.5 1-.6 2.8-1.3 4-1.5 1.9-.3 8.1-2.7 17.6-6.7 1.4-.6 2.7-1.1 3-1.2 1-.3 6.2-2.5 10.8-4.6 7.6-3.4 37.7-18.3 38.2-18.9.3-.4 1.9-1.4 3.5-2.2 8.3-4.3 10.1-5.3 11-6.1.6-.4 3.4-2.3 6.4-4 2.9-1.8 6.8-4.1 8.5-5.2 4.5-2.8 23.7-16.5 26.1-18.6 1.1-1 4.9-4.2 8.5-7 7.4-6 27.9-26.3 33-32.7 1.8-2.4 5.1-6.7 7.2-9.5 2-2.9 4.2-5.7 4.7-6.3.5-.7.8-1.4.5-1.6-.2-.3.5-1.3 1.6-2.3 1.1-1 2-2.2 2-2.8 0-.5 1-2.3 2.2-4 1.3-1.8 2.2-3.3 2-3.5-.1-.1.4-1.5 1.2-3 2.2-4.2 6.5-15.2 6-15.2-.3 0 0-.9.6-2 1-1.9 5.4-20.2 6.6-27.5.3-2.1.7-4.7 1-5.8.6-3.3 1.3-8.8 1.9-14.2.2-2.8.8-7.9 1.2-11.5 1-8.4 1-48.1 0-58.5-.4-4.4-1-10-1.2-12.3-.4-4.3-1-8.6-1.9-12.7-.2-1.1-.7-4.2-1-6.9-.4-2.7-.9-5.2-1.1-5.5-.1-.3-.6-2.2-.9-4.1-.3-1.9-1-5-1.5-6.8-.5-1.7-.8-3.2-.6-3.2.2 0-.2-1.8-1-4s-1.4-4.1-1.4-4.3c.3-1.7-7.4-26.7-12.3-39.7-4.3-11.6-13.3-31.9-18.6-42-8.1-15.6-9.8-18.5-10.9-19.8-.7-.7-1.3-2-1.3-2.8 0-.8-.4-1.4-.8-1.4-.5 0-1.4-1.2-2.1-2.6-1.9-4.3-15.9-25.1-24.5-36.4-16.3-21.5-36.8-44.1-55.2-60.9-10.6-9.7-29.5-19.7-53.9-28.6-7.1-2.6-13.9-5.1-15-5.6-2.3-1-23.3-7.3-31.5-9.6-6.8-1.8-19.9-5.3-22.2-5.9-1-.2-2.6-.6-3.5-.9-1-.2-4.7-1.1-8.3-2-3.6-.8-9.2-2.2-12.5-3-3.3-.9-7.3-1.8-9-2-1.6-.2-3-.4-3-.5 0-.2-1.5-.6-5.5-1.4-2.1-.5-4.1-.9-9-2.1-1.5-.4-11.9-2.5-14-2.9-1.4-.3-3.4-.7-4.5-1-8-1.8-12-2.7-15.3-3.2-2-.3-4-.8-4.3-1-.3-.2-1.9-.6-3.5-.8-1.6-.3-4-.8-5.4-1.1-1.4-.3-3.5-.8-4.7-1.1-1.3-.2-3.5-.7-5-1-1.6-.3-4.8-.9-7.3-1.4-2.5-.4-8.3-1.7-13-2.8-4.7-1.2-10.1-2.4-12-2.7-1.9-.3-4.2-.7-5-.9-.8-.1-3.3-.7-5.5-1.3-3.5-.9-23.2-5.5-29-6.8-1.1-.2-4.5-1.1-7.5-1.9-3-.8-9.1-2.4-13.5-3.6-4.4-1.2-8.7-2.4-9.5-2.7-.8-.4-1.7-.7-2-.8-9.6-2.4-29.1-11-38.3-16.9-5.4-3.5-16.8-14-21.1-19.6-4.9-6.2-14-27-11.9-27 .3 0 .1-.6-.5-1.3-1.1-1.3-1-22.3.1-26.8 3.6-14.5 12.8-28.8 24.9-39 7.5-6.3 21-13.7 29.8-16.3.3-.1 1.1-.5 1.8-.9.6-.5 1.2-.6 1.2-.3s1.1.1 2.6-.4c1.4-.6 3.9-1.2 5.7-1.5 1.8-.3 3.9-.8 4.7-1 6.1-1.7 17.6-2.6 34-2.6 13.8 0 23.9.8 33 2.6 1.4.3 3.6.7 5 1 2.5.5 12.8 2.7 14.3 3.1.4.1.8.2 1 .4.1.1.9.3 1.7.5.8.2 2.9.8 4.7 1.3 1.7.6 3.4.8 3.7.4.3-.3.6 0 .6.6 0 .7.3 1.1.8 1 2.1-.4 22.2 6.9 38.2 14 11.5 5.1 34.2 16.1 35 17.1.3.3 3.9 2.3 8 4.5 4.1 2.1 14 7.7 21.9 12.5 8 4.7 15.6 9.3 17 10.1 1.5.8 4 2.5 5.8 3.7 1.7 1.3 3.6 2.3 4.1 2.3.6 0 1.2.4 1.4.8.2.4 2.1 1.9 4.3 3.2 2.2 1.3 8.7 5.4 14.4 9.2 5.7 3.7 10.7 6.8 11.2 6.8s.9.4.9 1c0 .5.7 1 1.5 1s1.5.4 1.5 1c0 .5.7 1 1.5 1s1.5.3 1.5.8c0 .4 2.1 1.9 4.8 3.2 2.6 1.4 4.9 2.8 5 3.2.2.5 1 .8 1.8.8s1.4.5 1.4 1c0 1.3 5.4.4 8.9-1.5 3.6-1.9 8.1-6.2 11.6-11 1.7-2.2 3.4-4.3 4-4.7.5-.4.6-.8.2-.8-.5 0 .1-1.4 1.3-3 1.2-1.7 1.8-3 1.3-3-.4 0-.3-.4.3-.8 1.3-.9 5.4-12.4 5.4-15.3 0-2.6-1.5-5.4-5.9-10.9-6.9-8.5-22-22.2-34.6-31.5-2.2-1.6-4.2-3.2-4.5-3.5-.6-.7-17.9-12.4-28.3-19.2-12.3-8.1-33.2-20.4-38.4-22.7-1.1-.5-2.4-1.5-2.8-2.1-.3-.5-1-.8-1.5-.5-.5.3-1.1.1-1.4-.4-.6-.8-38.9-20.2-40.1-20.2-.2 0-3.7-1.5-7.7-3.3-15.4-7-46.6-18.7-58.8-22-3-.8-7.1-2-9-2.6-1.9-.6-4.2-1.3-5-1.5-.8-.1-5.5-1.3-10.5-2.5-4.9-1.1-10.1-2.3-11.5-2.5-1.4-.2-3.4-.6-4.5-.8-4.2-.9-9.2-1.7-14-2.3-2.7-.3-6.6-.8-8.5-1.1-4.3-.6-44.8-1.2-45.3-.6zM874.6 538.7c-.1.1-25.3.4-56 .7-30.6.2-56 .6-56.3.9-.3.3-1.6.2-2.9-.3-1.5-.6-2.6-.6-3 .1-.4.7-1 .7-1.8 0-.7-.6-1.6-.8-1.9-.5-.3.4-14.5.8-31.4.9-16.9.2-58 .7-91.3 1.1-49.1.7-379.1 1.1-451 .6-10.2-.1-19.2-.1-20-.1-.8 0-15.4-.1-32.5-.3-17-.1-31.6.1-32.2.5-.7.5-1.3.5-1.3 0 0-.9-22.8-.8-54.2.1-27.4.8-31.3 1.4-32.2 5-.3 1.4-1.1 3.8-1.8 5.3-4.5 10.7-4.6 26.5-.4 36 1.5 3.4 3.8 7 5 8.1 2.9 2.7 15.3 6.1 25.1 6.8 1.7.1 5.5.4 8.5.7 8.7.9 17.9 1.7 26.5 2.2 4.4.2 12.3.7 17.5 1 12.7.8 24.5 1.3 42 2 8 .3 20.8.8 28.5 1.1 7.7.3 18.7.7 24.5 1 33.9 1.3 45.5 2.2 59 4.5 7.8 1.4 9.9 2.3 9.9 4.7-.1 72.2-.1 71.6-1.4 150.2-.4 22.3-.8 50.5-1 62.7-.1 12.1-.6 22.6-.9 23.1-.3.6-.3 1.3.2 1.6.5.3.7 1.7.6 3.3-.3 3.1-.5 7-.4 9.3 0 .8-.2 14.5-.5 30.5-.2 15.9-.7 53.2-.9 82.7-.2 29.6-.7 54.2-1.1 54.8-.3.5-.2 1 .3 1s.6 2 .2 4.5c-.4 2.5-.4 4.7-.2 5 .3.3.5 2.4.4 4.8-.3 5-.3 4.9-.1 10.7 0 2.5 0 4.9-.1 5.5-.1.5-.2 1.3-.1 1.8.1.4.4 23.6.7 51.5.7 65.4.8 68.5 1.7 69.9.5.7.4 1.3 0 1.3-.5 0-.8 1.5-.6 3.2.1 1.8.5 9.4.8 16.8.6 17 1.9 41.4 3 58 .2 2.5.6 8.8 1 14 .9 14.5 1.1 16.6 1.9 17.8.3.6.2 1.3-.3 1.7-.7.3-.7 1.5-.1 2.9.5 1.3.9 3.7.9 5.2.1 5.7 2.1 23.1 4.6 41.1 1.2 8.7 2.6 17.3 3.5 20.8.5 2.2.9 4 .9 4-.1 0 1.4 4.5 2.1 6.1.5 1.2 1.9 2.4 3.2 2.7 1.3.3 4.3 1.1 6.8 1.7 2.5.7 5.5 1.4 6.8 1.6 1.2.2 3.4.7 5 1 9.4 2 29.7 1.9 38-.1 1.2-.3 3.1-.7 4.3-1 4.9-1 12.5-6.3 15.5-10.8l3.2-4.6-.3-16.8c-.2-9.2-.6-20.2-.9-24.3-.3-4.1-.8-11.1-1.1-15.5-.2-4.4-.7-11.4-1-15.5-.4-4.1-.8-10.2-.9-13.6-.2-3.4-.6-6.6-1-7.3-.4-.6-.2-1.1.4-1.1.6 0 .8-.5.4-1.1-.3-.6-.8-3.9-1-7.3-.5-9-1.2-21-1.8-30.6-.3-4.7-.8-12.6-1.1-17.5-.3-5-.7-12.2-1-16-.3-3.9-.7-10.8-1-15.5-.2-4.7-.7-13.7-1.1-20-.4-6.3-.7-15.4-.8-20.2 0-4.9-.3-8.8-.6-8.8s-.6-3.5-.7-7.8c-.1-7.1-.5-16.6-1.8-44.7-.3-6.1-.7-16.6-1-23.5-.3-6.9-.7-17.7-1-24-1-23.5-2.3-57.3-3-81.4-.3-8.2-.7-15.1-1-15.4-.3-.3 0-1.1.6-1.9.6-.7.8-1.3.3-1.3s-1-3.5-1-7.8c-.2-9.4-1.2-41.7-2-64.7-.3-9.4-.6-22.7-.7-29.7-.1-7.1-.4-12.8-.7-12.8-.3 0-.6-7.8-.6-17.3-.1-9.4-.5-30.7-.9-47.2-1.6-70.6-.8-128.9 2-137.3.5-1.5 5-3.4 9-3.7 6.1-.6 22.3-1.7 30.5-2.1 4.7-.3 80.3-.7 168-.9 257.7-.8 385.1-2.5 431-6 3.6-.3 9.9-.8 14-1.1 12.6-.9 15.9-2 22.4-7.6 18.4-16.1 35.1-38.5 42.3-56.8.6-1.5.6-3.8.1-5.7-.8-2.9-1.2-3.2-6.1-3.8-2.8-.3-7.1-.7-9.5-.9-2.3-.2-4.5-.6-4.8-.9-.4-.4-1.4-.2-2.4.3s-2 .7-2.3.3c-.4-.3-8.4-.8-17.9-1-18.1-.5-123.8-1-124.2-.6zM1110.8 582.9c-.7.9-3.8 5-6.8 9.1s-5.8 7.6-6.2 7.8c-.5.2-.8.7-.8 1.2 0 .8-10.8 17-12 18-.4.3-.9 1.2-1.3 2-.8 1.7-3 5.3-3.7 6-1 1-10 15-10 15.5 0 .6-1.1 2-3.7 5-.7.7-1.3 1.6-1.3 1.9 0 .3-4.4 7.4-9.8 15.9-5.4 8.4-10.2 16-10.5 16.8-.4.8-3 4.8-5.7 8.9-2.8 4.1-5.7 8.9-6.5 10.7-.8 1.7-2 3.7-2.8 4.5-1.1 1.1-3.3 4.6-8.2 13-.5 1-3.4 5.6-6.2 10.2-2.9 4.7-5.3 8.9-5.3 9.5 0 .5-.3 1.1-.8 1.3-.9.4-13.2 20.7-13.2 21.9 0 .5-.4.9-1 .9-.5 0-1 .4-1 .9 0 .6-3.9 7.4-8.6 15.3-4.8 7.9-9.5 15.6-10.4 17.3-2.6 4.4-14.9 25.4-17.7 30-1.3 2.2-2.6 4.8-3 5.7-.3 1-.9 1.8-1.4 1.8-.5 0-.9.6-.9 1.4 0 .7-.9 2.5-2.1 4-1.1 1.4-1.7 2.6-1.2 2.6.4 0 .3.4-.2.8-.6.4-4.2 6.1-7.9 12.7-3.8 6.6-7.6 13.1-8.5 14.5-.8 1.4-1.6 2.7-1.6 3-.1.7-5.5 10.1-7.6 13.2-1.1 1.5-1.9 2.9-1.9 3.1 0 .2-3.8 7.1-8.3 15.3-4.6 8.2-9.9 17.6-11.7 20.9-1.8 3.3-3.8 6.3-4.4 6.7-.6.4-.7.8-.3.8.5 0-.1 1.3-1.3 3-1.2 1.6-1.9 3-1.5 3 .3 0 .1.6-.5 1.2-1.6 1.9-22.7 40.1-23.5 42.7-.3 1.1-1 2.1-1.5 2.1s-1 .6-1.2 1.2c-.5 2.2-18.1 34.3-19.1 34.9-.5.3-.8.8-.6 1 .3.6-4.3 9.3-5.3 10-.5.3-.9.9-.9 1.3.1.8-4.6 10.2-6.8 13.5-.8 1.3-1.6 3.1-1.7 3.9-.2.8-.7 1.8-1.1 2.1-.5.3-3.3 5.1-6.3 10.6-5.3 10-7.6 14.2-12.6 23.2-1.5 2.7-3.9 7-5.4 9.8-3.2 5.8-5.6 10.2-9.4 16.5-4.6 7.8-3.9 7.4-7.5 5.6-3.8-2-17.5-11.8-17.9-12.9-.2-.4-1-.7-1.7-.7s-1.5-.3-1.7-.8c-.1-.4-5.7-4.7-12.3-9.5-6.6-4.8-13.1-9.6-14.5-10.7-3-2.3-12-8.9-15-11-1.2-.8-5.9-4.2-10.4-7.5-4.6-3.3-9-6.5-9.8-7-.8-.6-7.3-4.9-14.5-9.7-13.8-9.3-26.2-16.3-31.3-17.8-3.2-.9-9 .4-9 2.1 0 .5-.5.9-1 .9-1.4 0-12 11.1-12 12.6 0 .3-1.1 2-2.4 3.7-1.3 1.8-3.6 5.4-5.1 8.2-1.5 2.7-3.2 5.6-3.7 6.2-.6.7-.8 1.3-.5 1.3.3 0-.5 2-1.9 4.6-1.3 2.5-2.4 5.4-2.4 6.4s-.4 2.1-.8 2.4c-.4.2-.9 2.2-1 4.4-.2 3.5.2 4.4 4.1 8.1 2.4 2.3 6.8 6 9.8 8.2 3 2.2 6.1 4.6 6.9 5.2.8.7 4.4 3.3 8 5.7 3.6 2.5 7.1 5.1 7.8 5.7.7.7 3.3 2.5 5.8 3.9 2.4 1.4 4.4 3 4.4 3.5s.4.9 1 .9c.8 0 25.8 16.3 29.5 19.2 2.7 2.2 8.7 5.8 9.5 5.8.6 0 1 .3 1 .8 0 .4 1.6 1.6 3.5 2.6 1.9 1.1 3.5 2.3 3.5 2.8 0 .4.5.8 1 .8.9 0 20.2 12.5 23.5 15.2.6.5 3.3 2.3 6 4 2.8 1.8 5.2 3.5 5.5 3.8.3.3 2.8 2.1 5.7 4 2.8 1.9 5.4 4.3 5.6 5.3.5 1.5-1.7 7.3-4.3 11.7-.4.8-3.4 6.4-6.5 12.5-3.1 6-7.1 13.7-8.9 17-1.8 3.3-7 13.2-11.5 22-4.6 8.8-8.8 16.6-9.3 17.2-.6.7-.7 1.3-.2 1.3.5 0 .5.4-.1.8-.8.6-16.8 31.7-17 33.2-.1.3-1.6 3.6-3.3 7.4-1.8 3.8-3.2 7.3-3.2 7.7 0 .5-.4.9-.9.9-.9 0-2.6 4.8-2.3 6.2.1.5-.2.8-.8.8-.5 0-1 .7-1 1.5 0 .9-.7 2.7-1.6 4-.9 1.4-1.2 2.5-.8 2.5.5 0 .4.4-.2.8-.5.4-1.8 2.9-2.8 5.7-1 2.7-2.1 5.9-2.6 7-.5 1.1-1.3 3.4-1.8 5.1-1.8 5.7 1.9 11.1 16.4 23.5 3.3 2.8 24 16.9 24.8 16.9.3 0 2.7 1.3 5.3 2.8 2.7 1.6 7.9 4.1 11.7 5.6 6.1 2.5 7.2 2.6 9.4 1.4 2.6-1.3 11.2-12.2 11.2-14 0-.5.8-2.2 1.9-3.6 1-1.5 4.3-8.8 7.3-16.2 6.3-15.4 7-17.2 7.3-18.3.2-.4.4-.9.5-1.2.1-.3.3-.8.5-1.3.1-.4.7-2.1 1.4-3.7.7-1.7 1.4-3.7 1.7-4.5.2-.8 1.7-5.1 3.3-9.5 1.6-4.4 3.6-9.9 4.4-12.2.9-2.2 1.3-4.4 1-4.7-.4-.3-.1-.6.6-.6s1.1-.6.8-1.4c-.3-.7-.2-1.7.2-2.2.5-.5 2.3-5.2 4-10.4 1.8-5.2 3.6-10.4 4-11.5.5-1.1 2.5-6.7 4.6-12.5 2-5.8 3.9-11.2 4.2-12 .4-.8.7-1.7.8-2 .4-1.7 4.8-12.6 5.7-14.4.7-1.1 1.3-2.7 1.4-3.4.1-.8 1.3-2.9 2.5-4.7 1.9-2.7 2.7-3.2 4.1-2.4 1 .5 1.8 1.4 1.8 1.9 0 .6.7 1 1.5 1s1.5.3 1.5.7c0 .5 1.8 2.8 4 5.3 6.2 7 6.4 7.2 10.6 12.5 2.1 2.7 4.1 5.2 4.4 5.5.3.3 1.7 2.1 3 4s3 4.2 3.7 5c.7.8 3.6 4.4 6.3 8 2.7 3.6 5.3 6.9 5.8 7.5.4.5 2.3 3.1 4.1 5.7 1.9 2.7 3.8 4.8 4.2 4.8.4 0 1 .8 1.3 1.7.3 1 1.6 3 2.8 4.5 1.3 1.5 3.3 4 4.4 5.5 17.6 22.9 25.5 33 27.2 34.8.6.8 1.2 1.8 1.2 2.4 0 .6.4 1.1.8 1.1s2.6 2.3 4.7 5.2c2.2 2.8 4.4 5.6 5 6.2l5.5 6.6c8.5 10.4 9.5 11.5 17.1 19.2l7.7 7.8 3.8-1.6c2.1-.9 4.9-2.6 6.3-3.8 3.5-3 15.2-14.8 17.9-18.2 7.3-8.7 14.1-21 14.6-26.4.3-3-3.4-11.8-6.8-16.3-1.4-1.9-2.6-3.9-2.6-4.5 0-.7-.4-1.2-.8-1.2s-2-1.9-3.5-4.3c-1.5-2.3-3.8-5.5-5.2-7.1-1.4-1.6-2.5-3.2-2.5-3.5 0-.3-1-1.8-2.2-3.1-1.3-1.4-3.4-4.1-4.8-6-2.5-3.6-2.7-3.9-6.1-8-1.1-1.4-3-3.8-4.2-5.3-2.9-3.8-47-59.1-51-64.1-1.8-2.2-4.3-5.3-5.7-7-1.4-1.7-2.8-3.3-3.2-3.4-.5-.2-.8-.8-.8-1.3 0-.6-1.3-2.4-3-4.2-1.6-1.8-3-3.5-3-3.8 0-.3-1-1.7-2.2-3.1-1.3-1.4-3.5-4-5-5.9-1.4-1.9-3.6-4.5-4.7-5.9-3.2-3.9-3.4-4.2-7.1-9.4-1.9-2.7-4.7-6.3-6.2-8-1.6-1.7-2.8-3.3-2.8-3.7 0-.3-.9-1.6-2-2.9-2.3-2.6-2.1-3.1 5.3-17 2.5-4.7 5.8-11 7.3-14 1.6-3 3.1-5.7 3.4-6 .3-.3 1.2-1.9 2-3.5.8-1.7 1.7-3.2 2-3.5.3-.3 1.1-1.6 1.7-3 .7-1.4 2.8-5.2 4.7-8.5 1.9-3.3 4.3-7.6 5.4-9.5 2.9-5.5 4.6-8.4 6.1-10.3.8-.9 1.1-1.7.7-1.7-.4 0 .7-2 2.4-4.5s2.7-4.5 2.3-4.5c-.4 0-.3-.4.3-.8.8-.6 25.6-43 31.3-53.6.9-1.7 2-3.5 2.4-4 .4-.6 3.2-5.2 6.1-10.1 14.7-25 26-44.3 27.5-46.5.9-1.4 1.8-3 2.1-3.5.8-1.6 7.3-12.4 9.2-15.3 1-1.5 2.2-3.6 2.8-4.7.5-1.1 1.6-2.9 2.2-3.9 5.6-8.4 7.8-12.2 7.8-13.3 0-.7.5-1.3 1-1.3.6 0 1-.5 1-1 0-.6.5-1.6 1-2.3.6-.7 5.2-8 10.2-16.2 5.1-8.3 9.4-15.2 9.8-15.5.3-.3 1.2-1.9 2.1-3.5.9-1.7 7.6-12.5 14.9-24 7.3-11.6 13.8-21.9 14.4-23 2.8-4.8 9-14 9.8-14.3.4-.2.8-.8.8-1.3s2-4 4.4-7.7c2.4-3.7 7.3-11.4 11-17.2 3.6-5.8 7.1-11.2 7.6-12 8-11.7 24.2-36.9 24.6-38.3.4-.9 1-1.7 1.5-1.7s.9-.4.9-.9c0-.6 5.6-9.6 12.5-20 6.9-10.5 12.5-19.5 12.5-20s.4-1.1.8-1.3c.4-.2 3.1-3.9 6-8.3s5.7-8.7 6.2-9.5c5.7-8.4 15-23.3 15-24 0-.6.5-1 1-1 .6 0 1.4-1 1.9-2.3.9-2.1 11-18 13.1-20.4.5-.7 1-1.5 1-1.8 0-.3 1.1-2.4 2.5-4.6 4.6-7.2 4.8-8.6 1.7-11.8-7.1-7.4-44.3-28-55.7-30.8-.5-.1-2.8-.9-5.1-1.7-6.3-2.3-12-2.6-13.6-.7z"/><path d="M953.7 690.7c-.1.1-6.3.4-13.7.7-7.4.3-17.3.8-22 1-4.7.3-13.2.8-19 1.1-17.1.8-29 1.5-37 2-10.2.7-19.8 1.3-30.5 2-11.7.6-23.1 1.3-33 2-8.8.6-22.4 1.4-32.5 2-3.6.2-11.2.7-17 1-5.8.4-12.1.8-14.1.9-2 .2-4.1.6-4.7 1-.7.4-1.2.2-1.2-.4 0-.6-.4-.9-.8-.6-.8.5-7.3 1-24.2 2.1-3 .2-8.9.6-13 1-4.1.3-10.6.7-14.5 1-10 .6-22.1 1.4-29 2-3.3.2-10 .7-15 1-4.9.3-11.5.8-14.5 1.1-6.7.6-17.4 1.4-25.5 1.9-3.3.2-8.7.6-12 1-3.3.3-9.4.8-13.5 1-4.1.3-9.3.7-11.5.9-2.2.3-7.8.8-12.5 1.1-4.7.4-10.3.8-12.5 1-2.2.2-7.4.6-11.5 1-4.1.3-9.1.8-11 1-6.2.8-18.8 2.1-29.5 3-2.8.2-6.4.6-8 .9-1.7.2-5.5.7-8.5 1.1-6.5.7-10.5 1.2-16.3 2-2.3.3-6 .8-8.2 1.1-5.4.7-8.9 1.3-16 2.6-3.3.6-6.9 1.2-8 1.4-5.8.9-14.5 3.4-17.6 4.9l-2.6 1.4.3 16.3c.4 25.2 1.2 45.5 3 78.3 1 19.6 1.3 23.8 1.9 36 .4 6.6.8 14.7 1 18 .2 3.3.4 6 .5 6 .1 0 .3 3.6.5 8s.6 11.4.9 15.5c.3 4.1.8 11.3 1.1 16 .4 4.7.8 11 1.1 14 .2 3 .7 8.6.9 12.5.3 3.8.7 9.9 1 13.5 1 12.5 1.7 21.5 1.8 26.2.1 2.7.4 4.8.7 4.8.3 0 .6 2.6.6 5.8.2 8.6.7 16.6 1.2 17.5.2.5.6 3.9.8 7.5.3 6.3.7 11.2 1.9 24.2.3 3 .8 8 1 11 .2 3 .7 7.7 1 10.5.3 2.7.8 7.5 1.1 10.5.2 3 .6 7.5.9 10 .2 2.5.7 7.2.9 10.5.3 3.3.5 6 .6 6 .1 0 .3 1.8.5 4 .6 6.4 1.6 14.8 2 18 .3 1.6.7 5.2 1 8 1.1 10.7 2.9 26 3.9 34 .8 5.7 1.6 12.4 2.1 16.5.2 1.9.8 6.9 1.5 11 .6 4.1 1.3 9.5 1.6 12 .3 2.5.7 5.4.9 6.5.2 1.1.6 4.2 1 7 .3 2.7 1.2 9 2 14 .7 4.9 1.6 10.8 2 13 .5 4 1 6.6 2 11.5.3 1.4.7 4.1.9 6 .3 1.9.8 4.8 1.1 6.5.3 1.6 1.7 9.2 3.1 16.7 1.4 7.6 2.7 14.8 3 16 .9 4.1 1.6 8.3 1.7 10 .1 1 .5 1.8 1 1.8.4 0 .6.3.4.8-.3.4.6 5.4 1.9 11.2 1.4 5.8 2.7 11.8 3 13.5.3 1.6 1 3.8 1.5 4.7.5 1 .8 1.8.5 1.8-.3 0 .2 2.4 1.1 5.2.8 2.9 1.6 5.7 1.8 6.3.1.5.8 3 1.5 5.5s1.3 4.8 1.2 5.2c-.1.5.2.8.8.8.5 0 .7.6.4 1.4-.4 1 1.9 1.9 8.8 3.4 12.4 2.8 15.8 3.5 18.8 3.8 1.4.1 2.5.3 2.5.4 0 .1 1.6.3 3.5.5 3.9.3 13.1 1.4 17 2 7.1 1 21.3 2.1 41 3 6.3.3 13.2.7 15.3.8 2 .1 3.7-.1 3.7-.4 0-.4 1.6-.3 3.5.1 2.2.5 3.5.4 3.5-.2 0-.7.5-.7 1.3-.1.6.5 3.9.8 7.2.6 26.3-1 36.6-2 46-4.4 6.5-1.6 7.2-2.2 6.9-6.1-.9-12.4-1.5-18.6-1.9-20.8-.3-1.4-.8-3.9-1-5.5-.6-3.5-.7-4.1-2.5-12-1.7-7.3-1.7-7.4-2-8-.1-.3-.3-1.3-.5-2.3-.1-.9-.4-2.4-.8-3.2-.3-.8-1.5-4.7-2.7-8.5-3.4-11-10.4-24.8-15.1-30l-4.3-4.7-9.6.5c-8.7.5-21.5 3-36.5 7.2-3.3.9-7.1 1.8-8.5 2-1.4.2-2.6.4-2.7.5-.2.1-.6.3-1 .4-1.9.5-7 1.7-9.3 2.2-14.8 3.4-26 4.2-30.4 2.3-3.4-1.6-6.8-9.3-9.1-20.4-.2-1.1-2-9.4-4-18.5s-3.8-18-4.1-19.9c-.3-1.8-.7-4.1-.9-5-2.1-11.2-3.8-20.1-4.1-22.5-.2-1.5-.6-3.5-.8-4.5-.3-.9-.8-3.6-1.1-6.1-.6-4.5-.8-5.4-1.9-12-.3-1.9-.8-5.1-1-7-.3-1.9-.7-4.6-1-6-.2-1.4-.8-4.8-1.2-7.5-.4-2.8-.8-5.5-.9-6-.1-.6-.6-3.6-.9-6.9-.4-3.2-.9-6.8-1.1-8-.4-2.3-1.4-9.2-2-14.6-.2-1.9-.7-5.5-1-8-.4-2.5-.8-5.9-1-7.5-.2-1.7-.7-5.3-1-8-.4-2.8-.8-6.6-1-8.5-.3-3.5-1.2-11.3-2.2-18-.2-1.9-.6-5.5-.9-8-.2-2.5-.6-6.1-.8-8-.3-1.9-.7-6.9-1-11-.3-4.1-.8-9.1-1.1-11-.4-3-.8-8.3-2.1-23-1.8-22.3-2-38.6-.4-40.5 1.9-2.3 20.2-6 40-8 3-.3 7.8-.8 10.5-1.1 5.2-.6 9.3-1 18.5-1.8 3-.2 8.9-.7 13-1.1 4.1-.4 9.8-.8 12.5-1 2.8-.2 7.9-.6 11.5-.9 3.6-.4 9.4-.8 13-1.1 3.6-.2 9.7-.7 13.5-1 3.9-.4 10.2-.8 14-1.1 3.9-.2 10.2-.6 14-.9 3.9-.3 10.4-.7 14.5-1 4.1-.2 7.5-.4 7.5-.5 0-.1 2.7-.3 6-.5 10.5-.6 22.9-1.4 28.5-1.9 8.6-.8 20.7-1.7 29.5-2.2 8.5-.5 13-.8 26-1.9 10.9-.9 17.6-1.4 26.5-2 4.2-.3 9.3-.8 11.5-1.1 2.2-.2 6.3-.6 9.1-.8 4.7-.3 8-.7 21.9-2.2 2.8-.3 6.4-.8 8-1 1.7-.3 4.4-.7 6-1 10.4-1.3 11.1-2 26.3-21.9 2.2-2.9 7.2-10.7 7.2-11.2 0-.4.6-1.4 1.4-2.2 2.1-2.6 8.1-14 10.9-21.3 4.8-12 4.2-19.2-1.7-20.1-4.7-.7-22.1 0-44.1 1.8-2.2.2-7.6.6-12 .9-4.4.3-10 .8-12.5 1.1-2.5.2-7.2.6-10.5.9-7.3.7-14.3 1.4-21 2.1-2.7.3-7.7.8-11 1-3.3.3-7.4.7-9 1-1.7.2-6.6.7-10.8 1-4.3.4-8.8.8-10 1.1-1.2.2-5.4.6-9.3.9-4 .3-8.1.7-9.2 1-1.2.2-6.1.7-10.9 1-4.8.4-9.6.9-10.5 1-3.9.8-15.7 1.9-20.5 1.9-2.9.1-5.3.4-5.3.8s-1.7.7-3.7.7c-2.1 0-5.4.2-7.3.4-5.2.7-18 1.9-21.7 2.1-1.8 0-3.3.3-3.3.6s-1.7.5-3.8.6c-3.7.1-12.4.8-21.7 1.9-4.9.6-9.8 1-20 2-2.7.2-7.5.6-10.5.9-3 .3-8.4.8-12 1.1-3.6.3-9 .8-12 1.1-7.8.7-15.5 1.4-22.5 1.8-3.3.2-8.5.7-11.5 1-11.4 1.3-23.5 1.7-37.2 1.5-.9 0-2.5-1.8-3.6-4.2-1.7-3.7-2.3-6.2-3.8-16.7-.2-1.4-.6-6.4-.8-11.2-.3-4.9-.8-9.3-1.2-9.9-.4-.7-.3-1 .2-.7.5.4.9-.7.9-2.3 0-1.6-.4-2.9-.8-2.9s-.4-.8.1-1.8c1-1.9.8-8.4-.2-10.1-.4-.6-.4-1.1.1-1.1.4 0 .8-2.6.9-5.8.1-5.5 1.1-20 1.9-25.2 1.1-8.5 1.7-11.9 2.7-15.5.6-2.2 1.1-4.6 1.1-5.3 0-.6.4-1.2.9-1.2s.7-.4.4-.9c-1.2-1.9 5.5-5.5 12.3-6.6 1.9-.3 3.7-.7 4-.9.3-.2 3.1-.7 6.1-1 3-.4 6.6-.8 8-1 4.2-.7 11.1-1.5 18-2.1 3.6-.3 9-.7 12-1 3-.3 9.1-.7 13.5-1 4.4-.2 11.8-.7 16.5-.9 21.5-1.4 27.4-1.7 41-2.2 8-.3 19-.7 24.5-.9 19-.8 66.3-2.3 91.5-3 8-.2 14.5-.4 14.5-.5 0-.1 7.9-.3 17.5-.5s25.4-.7 35-1c9.6-.3 24.7-.8 33.5-1 25.7-.8 47.3-1.5 57.5-2 15.1-.7 31.2-1.6 35-1.9 1.9-.2 4.7-.4 6.1-.5 2-.1 4.1-1.9 8.5-7.4 3.3-3.9 6.1-7.4 6.4-7.7.3-.3 2.5-3.2 4.9-6.5 2.5-3.3 4.8-6.2 5.2-6.5.4-.3 4.9-6.8 10.1-14.5 14.1-21 19.6-33.5 16.9-38.2-.8-1.5-2.3-1.8-8.6-1.8-4.2 0-7.7.1-7.8.2zM1238.1 731.3c-7.3 3.9-19.5 15.2-33.6 31.2-3.3 3.7-6.5 7.3-7 7.9-1 1-21.9 26.9-24.8 30.6-.7.9-2.5 3.3-4.2 5.5-1.6 2.2-3.5 4.6-4.2 5.3-.7.7-1.3 1.7-1.3 2 0 .4-1 1.8-2.3 3.2-1.3 1.4-3.8 4.7-5.7 7.5-1.8 2.7-3.7 5.2-4 5.5-.7.6-15 20.3-16.5 22.8-.5.9-1.2 1.9-1.5 2.2-.8.7-8 11-17.5 25-4.3 6.3-8.1 11.7-8.4 12-.3.3-1.2 1.7-2 3.2-.8 1.5-2.2 3.7-3.3 4.7-1 1.1-1.8 2.3-1.8 2.6 0 .9-6.3 9.9-7.2 10.3-.5.2-.8.8-.8 1.3s-3.5 6.2-7.9 12.6c-4.3 6.5-7.8 12.2-7.9 12.7 0 .5-.4 1.2-.9 1.5-.5.3-4.9 6.9-9.7 14.6-4.9 7.7-10.2 15.9-11.7 18.2-1.6 2.3-2.9 4.4-2.9 4.7 0 .4-2.2 4-4.9 8.1s-5.2 8.3-5.6 9.4c-.3 1.2-1 2.1-1.5 2.1-.4 0-1 .8-1.3 1.7-.4 1-1.6 3.4-2.9 5.4-5.3 8.5-26.5 44.3-30.1 50.9-1.6 3-3.3 5.9-3.7 6.5-.4.5-1.9 3-3.2 5.5-1.4 2.5-3.4 6.1-4.5 8-11.2 19.7-27.9 53.2-29 58-1 4.2-.6 11.5 1.1 19.5 1.6 7.6 8.7 20.3 14.8 26.3 9 9.1 21.2 12.4 26.2 7.2 2-2 11.3-15.1 18.9-26.3 2.2-3.3 10.7-15.2 11.7-16.4.5-.7 1-1.5 1-1.7 0-.9 3.1-4.6 9.7-11.6 5.3-5.5 6.5-6.3 8-5.4 1 .6 1.8 1.5 1.9 2 0 .5.4 2 .8 3.4s.8 4.1 1.1 6c.2 1.9.6 5.5.9 8 1.3 11.1 2.1 40 3.1 107 .2 16.8.5 30.5.5 30.5.1 0 .3 5.4.5 12s.6 18.7 1 27c.4 8.2.9 17.9 1 21.5.2 3.6.4 6.5.5 6.5 0 0 .3 2.9.5 6.5.8 14.7 1.5 23.5 1.9 25 .3.8.8 4 1.1 7 .4 3 1.2 6.1 1.7 6.8 1.1 1.2 9.7 4.1 15.3 5 5.4.9 26.5 1 30.3.1 2-.4 4.8-1 6.2-1.2 4.6-.9 13.8-4.8 14.2-6 .7-2.2-.4-26.8-1.7-34.7-.2-1.4-.6-5.2-1-8.5-.3-3.3-.8-7.4-1-9-.2-1.7-.7-5.9-1-9.5-.4-3.6-.8-7.6-1.1-9-.2-1.4-.6-4.5-.9-7-.2-2.5-.7-6.5-1-9-.7-6.1-1.4-11.6-2-17-.3-2.5-.7-5.6-.9-7-.3-1.4-.7-5.5-1.1-9.2-.3-3.7-.8-7.7-1-9-.2-1.3-.7-5.5-1-9.3-.8-8.4-1.1-11.5-1.9-18-.7-5.8-1.5-14.1-2.1-20.5-.2-2.5-.6-7-.9-10-.4-3-.8-8.2-1.1-11.5-.3-3.3-.7-8.5-.9-11.5-.3-3-.8-9.8-1.1-15-.4-5.2-.8-11.1-.9-13-1.9-21.6-2.8-76.6-1.4-86 1.7-11.8 12.8-25.8 48.8-61.9 15-15 30.4-29.9 59.8-58 15.4-14.6 23.2-22.4 23.2-23.2 0-.5.4-.9.9-.9.9 0 17.3-16.4 21.6-21.6 1.4-1.8 4.4-5.2 6.6-7.5 4.3-4.8 8.9-13.2 9.3-17.1.1-1.3.5-2.8.7-3.3.7-1.3.3-25.9-.5-31.5-.4-2.5-.9-6.4-1.2-8.6-.2-2.3-.7-5.3-1-6.5-.3-1.3-.6-3.1-.6-3.9 0-.8-.9-5.8-2-11s-2.1-10.6-2.3-12c-.7-4-6.5-24.9-9-32-.1-.3-.6-2-1-3.8-.4-1.8-1.2-3.5-1.6-3.8-.5-.3-.9-1.3-.9-2.3 0-3.6-11-23.8-14.9-27.4-4.3-4-6.6-4.3-12-1.4zM1364.7 849.6c-.1.1-2.2.4-4.7.7-2.5.3-4.6.6-4.7.6-.2.1-2.2 9.6-2.8 13.3-1.3 9.7-1.5 10.8-3.2 24.8-.3 2.5-.6 6.1-.8 8-.2 1.9-.4 3.5-.5 3.5-.1 0-.3 1.8-.4 4-.3 3.9-1.3 14.7-2.2 23-.2 2.2-.6 6.7-.9 10-.9 10.4-2 24.1-3.1 36-.3 4.4-.8 10.2-1 13-.6 10.6-1.4 22.2-1.9 27.5-.2 3-.7 9.8-1 15-.3 5.2-.8 12.9-1.1 17-1.6 22.1-4.5 90-4.5 102.2 0 1 .1 2.4.1 3 0 .7-.2 17.5-.3 37.3-.2 19.8 0 36.9.3 38 .4 1.1.4 3.2-.1 4.7-.4 1.6-.5 2.8-.1 2.8s.7 1.9.8 4.3c.1 4.8 1 13.8 1.9 18.2.5 2.1 1.5 3.4 3.3 4.2 6.2 2.5 12.1 4.2 17.7 5.3 3.3.6 7.8 1.6 10 2 2.2.5 6.3 1.2 9 1.5 2.8.3 6.4.8 8 1.1 1.7.3 5.5.7 8.5.9 3 .2 5.5.4 5.5.5 0 .3 17 1.5 37 2.6 10.9.5 53.3.5 60-.1 16-1.4 17.1-1.6 21.5-3 1-.3 2-1.8 2.3-3.3.8-3.9-.5-23-1.6-24.9-.3-.5-.8-2.8-1.2-5.2-.3-2.4-1-5.3-1.4-6.5-.5-1.1-.9-2.6-1-3.1-.8-7-9.1-27.7-12.8-32.1-1.7-2.1-3-2.2-22.3-2.8-11.3-.4-22.3-.9-24.5-1.2-2.2-.2-6.5-.6-9.5-.8-23.4-1.7-40.6-5.4-42-9-1-2.6-.5-15.1 1.5-40.6.3-4.1.7-8.9 1-10.5.2-1.7.6-5.5.9-8.5.3-3 .8-8.2 1.2-11.5.3-3.3.8-7.6.9-9.5.2-1.9.6-5.8 1-8.5.3-2.8.8-7 1-9.5.3-2.5.7-6.1 1-8 .2-1.9.7-6.2 1-9.5.4-3.3.9-7.4 1.2-9 .2-1.7.6-4.8.8-6.9.4-3.9 1.3-11.8 2-16.6.2-1.4.7-4.8 1-7.5.3-2.8.7-6.6 1-8.5.3-1.9.7-5.5 1-8 .3-2.5.8-6.3 1.1-8.5.2-2.2.7-5.8 1-8 .2-2.2.6-5.1.8-6.5.2-1.4.7-5.4 1.1-9 .4-3.6.9-7.2 1-8 .2-.8.6-4.2.9-7.5 1.4-12.2 2.3-19.7 3.1-25.5.3-1.9.7-6.2 1-9.5.3-3.3.8-7.6 1.1-9.5.3-1.9.7-5.8.9-8.5.2-2.8.7-7.5 1-10.5.4-3 .8-9.4 1-14.2.1-4.7.5-9.1.9-9.6.7-1.2-5.8-7.8-9.9-9.9-1.6-.8-3.7-2.1-4.5-2.8-.8-.8-1.7-1.3-2-1.2-.3 0-1.6-.6-3-1.5-3.1-2-19.6-7.6-24.1-8.3-7-1-23.7-2.3-24.2-1.9zM1512.4 903.1c-.7 1.2-1.6 5.8-1.7 8.6-.1 1.3-.3 2.3-.6 2.3-.4 0-.7 1-.8 2.2-.8 12.2-1.1 16.4-1.3 16.8-.4 1.1-.5 47.6-.1 48.5.3.5.6 4.3.8 8.5.4 11 1.9 32.7 2.8 40.5.3 2.7.8 7.5 1 10.5.3 3 .7 6.8 1 8.5.3 2.6 1.1 9.2 2 17.5.1 1.4.6 4.5 1 7 .9 5.6 1.4 9.3 1.9 14.5.3 2.2.5 4 .6 4 .1 0 .3 1.1.4 2.5.2 1.4.6 4.3 1 6.5s.9 5.3 1.1 7c.3 1.6.6 3.9.9 5 .2 1.1.7 4.1 1 6.8.4 2.6 1.1 5.8 1.6 7.1.5 1.3.6 2.6.4 2.9-.3.3-.1 2.2.5 4.3.5 2.2 1.2 5 1.5 6.4.2 1.4.9 4.5 1.4 7 .6 2.5 1.4 6.5 1.7 9 .4 2.4.9 4.8 1.2 5.3.4.7 1.2 3.9 3.7 16.2.7 3.2 4.3 16.6 5.9 21.8.9 2.6 1.6 5 1.6 5.2.3 1.3.7 2.7 1.3 4.5.3.8 1.8 5.1 3.3 9.5 6.9 20.3 13.1 32.4 20.1 39.1 4 4 4.4 4.1 9.5 3.7 14.2-1.1 39.5-12.6 84.4-38.1 8.3-4.7 15.2-9 15.3-9.4.2-.4.8-.8 1.3-.8 1.2 0 24.3-14.8 36.4-23.3 14.9-10.6 18-13.8 18.4-18.9 2.2-27.7-3.8-47.6-17-56-2.4-1.5-2.9-1.5-8 .3-3 1.1-6.7 2.5-8.4 3.3-1.6.8-6.1 2.8-9.8 4.5-3.8 1.8-7.8 3.6-9 4.1-1.2.6-2.9 1.4-3.7 1.9-5.4 3.2-34.7 15.4-40 16.7-.8.2-4.2 1.1-7.5 2-8.1 2.2-9.1 2.4-15.6 2.9-3 .2-6 .5-6.5.6-.5.1-1.1 0-1.4-.1-.3-.1-1.6-.3-3-.4-5.5-.5-9.9-3.8-13.2-10.1-1.2-2.2-2.3-4.5-2.5-5-2.5-9.6-2.3-14.5 1.3-22 4.3-9.3 12.3-15.7 22.4-18.1 1.9-.4 4-.9 4.5-1.1 2.2-.7 26.2-6.3 28.5-6.7 1.4-.2 9.9-2 19-4.1 21.8-4.8 38.1-10.1 42.6-13.8 3.2-2.7 3.5-3.4 3.3-7.6-.2-2.5-.8-5.7-1.5-7.1-.6-1.4-2-4.4-3-6.8-1-2.3-2.1-4.2-2.6-4.2-.4 0-.8-.5-.8-1.1 0-.6-1.3-2.9-2.8-5.2-1.6-2.3-3.1-5-3.5-6-.7-2-2.4-2.1-8.7-.6-2.5.6-5.6 1.3-7 1.5-1.4.3-7 1.3-12.5 2.3-15.7 3-17.7 3.3-22 3.7-2.2.2-6.9.7-10.5 1.1-7.8.9-28.4.9-32.3 0-3.8-.8-9.5-4.4-10.8-6.8-3.3-6.3-4.4-19.4-2.5-30.4 1.8-9.8 6.7-23 10.8-28.7 1.9-2.8 3.1-2.9 10.7-1.3 4.7 1.1 31.1 8.6 36.1 10.3 2.1.7 1.9.7 8.5 2.2 7.5 1.7 7.4 1.7 7.8 2 .1.1 1.1.3 2.2.6 12 2.4 15.8 2.2 19.3-1.3 1.6-1.5 3.7-4.8 4.7-7.3 2.2-5.7 2.8-21.5 1-29.9-.7-3.3-1-6.1-.8-6.1.3 0 0-.6-.6-1.3-.6-.8-1.2-2.2-1.4-3.3-1.3-6.4-5.9-12.5-9.5-12.3-1.5.1-5.8-.2-9.7-.6-3.8-.5-7.8-.8-8.7-.7-1 0-1.8-.3-1.8-.7 0-.4-1.5-.6-3.2-.5-1.8.1-3.7 0-4.2-.4-.6-.3-2.2-.7-3.6-.8-2.8-.2-10.2-1.2-14-1.8-1.4-.3-4.3-.7-6.5-1-2.2-.3-5.1-.8-6.5-1.1-1.4-.3-4.3-.7-6.5-1-3.6-.3-12-1.6-19.5-2.9-1.4-.3-4.1-.7-6-1-1.9-.3-6.2-1-9.5-1.6-3.3-.6-7.1-1.3-8.5-1.5-1.4-.2-4.1-.7-6-1-1.9-.3-4.8-.8-6.5-1-1.6-.2-4.6-.6-6.5-1-20.3-3.7-23.3-4.2-28.5-5-2.2-.3-5-.7-6.2-1-1.3-.2-2.5.1-2.9.6z"/><path d="M1258.5 995.7c-1.1.3-2.6 1.2-3.2 2.1-.7.9-1.3 1.3-1.3.9 0-1.4-8.9 7.2-15.8 15.2-1.2 1.4-2.8 3.3-3.5 4.1-2.2 2.5-11.3 15.4-12 17-.4.8-1.6 2.8-2.7 4.5-2.2 3.4-6.4 10.7-6.5 11.5 0 .3-.8 1.8-1.7 3.5-3.9 7.4-7.1 16.4-7.5 21.5-.5 5.7-.6 16.8-.3 18.5.1.5.1 1.4 0 2-.5 1.9-.2 10.6.3 11.2.3.3.2 1.5-.3 2.7-.4 1.2-.4 2.9 0 3.7.5.8.5 2.1 0 2.8-.4.8-.4 2.7 0 4.2.6 2 .5 2.9-.3 2.9s-.8.3-.2.8c.6.4 1.1 8.7 1.1 20.7.2 19.1 1.1 54.3 1.9 72.5 1 21.9 2 41.7 3 57 .4 5.2.8 12.4 1.1 16 1.1 17.4 1.4 20.8 1.8 25 .7 6.7 1.6 16.7 2.2 23.9.2 3.5.7 8.3.9 10.5.3 2.3.8 5.7 1 7.6.3 1.9.7 6 .9 9 .3 3 .8 7.2 1.1 9.4.6 3.3 1.1 8.2 1.7 14.6.2 2.7 2.2 3.9 9.8 5.7 1.7.4 22.3.3 25.5-.1 5.2-.7 13.2-1.9 14.8-2.2.9-.2 2.7-.6 3.9-.9 1.2-.2 4.3-1.2 6.9-2 6.7-2.3 6.9-3 7-28 0-15.6-.2-24.6-1.6-54.5-.2-5.8-.7-15.7-1-22-.3-6.3-.7-16-1-21.5-.3-5.5-.8-14.7-1-20.5-1-24.4-1.4-33.5-1.5-33.5-.1 0-.3-5-.5-11-.5-13.4-1.4-33.6-2-47-.3-5.5-.7-15.6-.9-22.5-.3-6.9-.6-12.5-.6-12.5-.1 0-.3-4.3-.6-9.5-.8-18.9-1.1-24.1-1.7-24.6-.3-.4-.2-1.6.3-2.9.5-1.3.6-2.6.2-3-.4-.3-.7-2.3-.8-4.3-.1-3.8-1.4-23.4-1.9-28.7-.1-1.7-.6-6.4-.9-10.5-.4-4.1-1.1-10.4-1.6-14-.5-3.5-.7-6.6-.5-6.8.2-.3 0-1.2-.5-2.2-.5-.9-1-3.4-1.2-5.4-.1-2.1-.6-4-1-4.2-.4-.3-.8-1.3-.8-2.3 0-2.1-3.1-5.1-5.1-5-.8.1-2.3.3-3.4.6z"/></svg>