<?xml version="1.0" encoding="UTF-8"?>
<svg xmlns="http://www.w3.org/2000/svg" xmlns:cc="http://creativecommons.org/ns#" xmlns:dc="http://purl.org/dc/elements/1.1/" xmlns:rdf="http://www.w3.org/1999/02/22-rdf-syntax-ns#" id="tejos_icon" width="60.483mm" height="44.725mm" version="1.1" viewBox="0 0 60.483 44.725">
	<metadata>
		<rdf:RDF>
			<cc:Work rdf:about="">
				<dc:format>image/svg+xml</dc:format>
				<dc:type rdf:resource="http://purl.org/dc/dcmitype/StillImage"/>
				<dc:title/>
			</cc:Work>
		</rdf:RDF>
	</metadata>
	<g transform="translate(-2.6829 -1.6411)">
		<g id="tejos_logo_group">
			<path d="m2.7212 2.1723c2.8173-0.46363 9.1714-0.59577 15.863-0.50367 6.2505 0.086028 13.509 0.3614 16.009 0.62423 0.37876 1.7942 0.50128 3.1627 0.41608 4.3718-6.8041-0.8084-15.925-1.4001-18.165-0.67319-1.0388 3.3018-1.872 9.0939-1.9768 15.839-0.10484 6.7491 0.51691 15.21 3.3407 23.06-1.4967 0.26894-4.1209 0.55711-5.0936 0.38484-1.2641-3.2243-2.4874-9.4731-2.7869-18.341-0.26682-7.9006 0.19396-17.261 1.0909-20.786-2.3029 0.15992-5.3171 0.42726-8.7357 0.70783 0.035236-1.5782 0.050867-3.1423 0.03829-4.6844z"/>
			<path d="m19.534 8.034c2.1292-0.57799 13.817 0.80611 15.348 1.3988 0.15821 1.9594 0.15973 3.3385 0.1261 4.485-1.8378-0.21343-10.105-1.5392-11.983-1.371-0.70386 0.39364-1.0312 2.5017-1.1324 3.5026 0.85531 0.24374 11.234 1.0919 12.973 1.1479-0.0095 0.93734 0.0016 2.8041-0.26136 3.6239-3.7936-0.04209-12.053-0.69735-13.088-0.63991-0.36089 1.5303 0.07676 3.9728 0.44363 4.9957 2.2513 0.83986 9.0619 0.45834 12.785-0.09198-0.06292 1.813-0.14078 3.0817-0.34412 4.1572-1.5335 0.53793-5.1217 0.71028-8.6152 0.66934-3.4708-0.04066-6.927-0.2902-7.9332-0.71371-0.97213-3.1268-1.1642-7.6599-0.80902-11.9 0.34998-4.1782 1.205-7.9102 2.4901-9.2639z"/>
			<path d="m36.978 2.3163c0.43582-0.21828 4.258 0.091847 4.6106 0.25583 1.0143 5.5736 1.3124 12.233 0.84316 19.829-0.43922 7.1098-1.5341 14.622-3.0586 19.376-0.90929 3.0573-5.6716 4.4152-9.4575 3.9205-1.8437-0.18465-5.0398-1.6789-6.8397-4.1336-1.272-1.6169-2.2348-5.4661-2.1891-9.2406 1.1336-0.73629 3.0113-0.79781 4.1348-0.44801 0.11698 2.3216 0.60405 6.6534 2.6588 8.4063 1.5142 0.997 5.3489 1.5421 7.1557-0.43633 1.8544-3.5981 2.8713-10.848 3.2136-18.062 0.37018-7.8017-0.11531-14.335-1.0718-19.467z"/>
			<path d="m48.553 3.3311c-4.5465 2.1644-4.9413 8.4896-2.4643 11.553 2.354 3.619 9.4037 2.4216 12.325-0.24383 2.921-2.6655 4.0414-6.1976 1.8494-9.1597-2.1834-2.9506-7.0435-4.3712-11.71-2.1498l-3e-6 -1.94e-5zm2.1646 3.9781c1.8986-1.1616 4.2099-0.4199 5.093 0.91996 0.8838 1.341 0.50048 3.2557-0.82107 4.2555s-3.8893 0.96975-5.0022-0.47191c-1.1128-1.4417-1.1824-3.5335 0.73025-4.7036z"/>
			<path d="m47.981 20.794c1.6397-1.0392 8.7562-2.6941 12.007-1.4564 1.2244 1.0404 0.93206 3.7041 0.33664 4.5365-5.5299-0.6107-11.301 0.22715-11.567 2.6528-0.26904 2.4491 6.5549 2.7828 10.26 5.0778 4.3992 2.6641 5.6074 8.5446 2.122 12.305-2.3436 2.1101-6.6 2.6156-10.629 2.417-3.99-0.19662-7.9003-1.076-9.2709-1.7903-0.34858-1.3482 0.37131-3.7908 1.1943-4.5366 4.5934 1.209 8.4933 2.2143 12.744 1.1872 5.6387-1.7116 2.7315-5.7201-2.4767-7.2045-5.2655-1.5007-8.9466-3.1192-8.5654-6.8155 0.38338-3.7175 2.2059-5.3341 3.8458-6.3735z"/>
		</g>
	</g>
</svg>
